<svg xmlns="http://www.w3.org/2000/svg" viewBox="500 20 160 160" width="160" height="160">
  <g transform="translate(580, 100)">
    <polygon points="-34,25 0,-26 34,25 27,25 0,-14 -27,25" fill="white" opacity="0.10"/>
    <polyline points="-34,25 0,-26 34,25" fill="none" stroke="white" stroke-width="1.2" stroke-linecap="round" stroke-linejoin="round" opacity="0.35"/>
    <polygon points="-22,15 0,-17 22,15 16,15 0,-9 -16,15" fill="white" opacity="0.20"/>
    <polyline points="-22,15 0,-17 22,15" fill="none" stroke="white" stroke-width="1.6" stroke-linecap="round" stroke-linejoin="round" opacity="0.65"/>
    <polygon points="-10,6 0,-8 10,6 6,6 0,-3 -6,6" fill="white" opacity="0.92"/>
    <polyline points="-10,6 0,-8 10,6" fill="none" stroke="white" stroke-width="2" stroke-linecap="round" stroke-linejoin="round"/>
    <polyline points="-38,-32 -44,-32 -44,-24" fill="none" stroke="#85B7EB" stroke-width="1.2" stroke-linecap="round" stroke-linejoin="round" opacity="0.75"/>
    <polyline points="38,-32 44,-32 44,-24" fill="none" stroke="#85B7EB" stroke-width="1.2" stroke-linecap="round" stroke-linejoin="round" opacity="0.75"/>
    <polyline points="-38,32 -44,32 -44,24" fill="none" stroke="#85B7EB" stroke-width="1.2" stroke-linecap="round" stroke-linejoin="round" opacity="0.75"/>
    <polyline points="38,32 44,32 44,24" fill="none" stroke="#85B7EB" stroke-width="1.2" stroke-linecap="round" stroke-linejoin="round" opacity="0.75"/>
  </g>
</svg>
