<svg xmlns="http://www.w3.org/2000/svg" viewBox="20 320 460 110" width="460" height="110">
  <rect x="20" y="320" width="460" height="110" rx="10" fill="#0C447C"/>
  <g transform="translate(90, 375)">
    <polygon points="-26,18 0,-20 26,18 21,18 0,-11 -21,18" fill="white" opacity="0.10"/>
    <polyline points="-26,18 0,-20 26,18" fill="none" stroke="white" stroke-width="1" stroke-linecap="round" stroke-linejoin="round" opacity="0.35"/>
    <polygon points="-17,11 0,-13 17,11 12,11 0,-7 -12,11" fill="white" opacity="0.20"/>
    <polyline points="-17,11 0,-13 17,11" fill="none" stroke="white" stroke-width="1.3" stroke-linecap="round" stroke-linejoin="round" opacity="0.65"/>
    <polygon points="-8,5 0,-7 8,5 5,5 0,-3 -5,5" fill="white" opacity="0.92"/>
    <polyline points="-8,5 0,-7 8,5" fill="none" stroke="white" stroke-width="1.8" stroke-linecap="round" stroke-linejoin="round"/>
    <polyline points="-32,-26 -37,-26 -37,-20" fill="none" stroke="#85B7EB" stroke-width="1.1" stroke-linecap="round" stroke-linejoin="round" opacity="0.75"/>
    <polyline points="32,-26 37,-26 37,-20" fill="none" stroke="#85B7EB" stroke-width="1.1" stroke-linecap="round" stroke-linejoin="round" opacity="0.75"/>
    <polyline points="-32,26 -37,26 -37,20" fill="none" stroke="#85B7EB" stroke-width="1.1" stroke-linecap="round" stroke-linejoin="round" opacity="0.75"/>
    <polyline points="32,26 37,26 37,20" fill="none" stroke="#85B7EB" stroke-width="1.1" stroke-linecap="round" stroke-linejoin="round" opacity="0.75"/>
  </g>
  <line x1="145" y1="342" x2="145" y2="408" stroke="#85B7EB" stroke-width="0.75" opacity="0.3"/>
  <text x="165" y="366" font-family="system-ui, sans-serif" font-size="18" font-weight="500" letter-spacing="0.14em" fill="white">ANAETHER</text>
  <text x="167" y="386" font-family="system-ui, sans-serif" font-size="8.5" font-weight="400" letter-spacing="0.34em" fill="#85B7EB">SYSTEMS</text>
</svg>
