<svg xmlns="http://www.w3.org/2000/svg" viewBox="20 450 460 110" width="460" height="110">
  <rect x="20" y="450" width="460" height="110" rx="10" fill="#E6F1FB"/>
  <g transform="translate(90, 505)">
    <polygon points="-26,18 0,-20 26,18 21,18 0,-11 -21,18" fill="#185FA5" opacity="0.09"/>
    <polyline points="-26,18 0,-20 26,18" fill="none" stroke="#185FA5" stroke-width="1" stroke-linecap="round" stroke-linejoin="round" opacity="0.28"/>
    <polygon points="-17,11 0,-13 17,11 12,11 0,-7 -12,11" fill="#185FA5" opacity="0.18"/>
    <polyline points="-17,11 0,-13 17,11" fill="none" stroke="#185FA5" stroke-width="1.3" stroke-linecap="round" stroke-linejoin="round" opacity="0.58"/>
    <polygon points="-8,5 0,-7 8,5 5,5 0,-3 -5,5" fill="#185FA5" opacity="0.90"/>
    <polyline points="-8,5 0,-7 8,5" fill="none" stroke="#185FA5" stroke-width="1.8" stroke-linecap="round" stroke-linejoin="round"/>
    <polyline points="-32,-26 -37,-26 -37,-20" fill="none" stroke="#378ADD" stroke-width="1.1" stroke-linecap="round" stroke-linejoin="round" opacity="0.65"/>
    <polyline points="32,-26 37,-26 37,-20" fill="none" stroke="#378ADD" stroke-width="1.1" stroke-linecap="round" stroke-linejoin="round" opacity="0.65"/>
    <polyline points="-32,26 -37,26 -37,20" fill="none" stroke="#378ADD" stroke-width="1.1" stroke-linecap="round" stroke-linejoin="round" opacity="0.65"/>
    <polyline points="32,26 37,26 37,20" fill="none" stroke="#378ADD" stroke-width="1.1" stroke-linecap="round" stroke-linejoin="round" opacity="0.65"/>
  </g>
  <line x1="145" y1="472" x2="145" y2="538" stroke="#378ADD" stroke-width="0.75" opacity="0.3"/>
  <text x="165" y="496" font-family="system-ui, sans-serif" font-size="18" font-weight="500" letter-spacing="0.14em" fill="#0C447C">ANAETHER</text>
  <text x="167" y="516" font-family="system-ui, sans-serif" font-size="8.5" font-weight="400" letter-spacing="0.34em" fill="#378ADD">SYSTEMS</text>
</svg>
