<svg xmlns="http://www.w3.org/2000/svg" viewBox="20 20 220 280" width="220" height="280">
  <rect x="20" y="20" width="220" height="280" rx="10" fill="#0C447C"/>
  <g transform="translate(130, 148)">
    <polygon points="-36,26 0,-28 36,26 29,26 0,-15 -29,26" fill="white" opacity="0.10"/>
    <polyline points="-36,26 0,-28 36,26" fill="none" stroke="white" stroke-width="1.2" stroke-linecap="round" stroke-linejoin="round" opacity="0.35"/>
    <polygon points="-24,16 0,-18 24,16 17,16 0,-10 -17,16" fill="white" opacity="0.20"/>
    <polyline points="-24,16 0,-18 24,16" fill="none" stroke="white" stroke-width="1.6" stroke-linecap="round" stroke-linejoin="round" opacity="0.65"/>
    <polygon points="-11,7 0,-9 11,7 7,7 0,-4 -7,7" fill="white" opacity="0.92"/>
    <polyline points="-11,7 0,-9 11,7" fill="none" stroke="white" stroke-width="2" stroke-linecap="round" stroke-linejoin="round"/>
    <text x="0" y="52" text-anchor="middle" font-family="system-ui, sans-serif" font-size="18" font-weight="500" letter-spacing="0.14em" fill="white">ANAETHER</text>
    <text x="0" y="68" text-anchor="middle" font-family="system-ui, sans-serif" font-size="8" font-weight="400" letter-spacing="0.34em" fill="#85B7EB">SYSTEMS</text>
    <polyline points="-56,-40 -63,-40 -63,-31" fill="none" stroke="#85B7EB" stroke-width="1.4" stroke-linecap="round" stroke-linejoin="round" opacity="0.75"/>
    <polyline points="56,-40 63,-40 63,-31" fill="none" stroke="#85B7EB" stroke-width="1.4" stroke-linecap="round" stroke-linejoin="round" opacity="0.75"/>
    <polyline points="-56,76 -63,76 -63,67" fill="none" stroke="#85B7EB" stroke-width="1.4" stroke-linecap="round" stroke-linejoin="round" opacity="0.75"/>
    <polyline points="56,76 63,76 63,67" fill="none" stroke="#85B7EB" stroke-width="1.4" stroke-linecap="round" stroke-linejoin="round" opacity="0.75"/>
  </g>
</svg>
